<svg width="38" height="48" viewBox="0 0 38 48" fill="none" xmlns="http://www.w3.org/2000/svg">
<path fill-rule="evenodd" clip-rule="evenodd" d="M5.39362 0.765999C3.46987 1.01775 2.45337 1.48087 1.72662 2.191C1.00225 2.9035 0.529624 3.90099 0.270749 5.78436C0.00474961 7.72474 0 10.2945 0 13.9781V34.3318C0.940444 33.6897 1.98389 33.2134 3.08512 32.9234C4.33912 32.5933 5.80211 32.5933 7.94674 32.5957H37.9999V13.9805C37.9999 10.2945 37.9952 7.72474 37.7292 5.78436C37.4703 3.90099 36.9977 2.9035 36.2733 2.191C35.5466 1.48087 34.5301 1.01775 32.6063 0.765999C30.6256 0.50475 28.0036 0.5 24.2416 0.5H13.7584C9.99636 0.5 7.37436 0.50475 5.39362 0.765999ZM6.55261 11.4131C6.55261 10.3491 7.43136 9.48698 8.51673 9.48698H29.4832C29.9985 9.48255 30.4945 9.68252 30.8627 10.0431C31.2308 10.4037 31.4411 10.8955 31.4473 11.4107C31.4417 11.9264 31.2317 12.4188 30.8635 12.7799C30.4953 13.141 29.9989 13.3413 29.4832 13.3369H8.51673C8.00144 13.3413 7.5054 13.1413 7.13725 12.7807C6.76911 12.4202 6.55888 11.9284 6.55261 11.4131ZM7.13732 19.0301C7.50546 18.6696 8.00151 18.4696 8.5168 18.474H21.6196C22.1358 18.469 22.6328 18.669 23.0015 19.0301C23.3702 19.3913 23.5805 19.8841 23.5861 20.4002C23.5799 20.9158 23.3693 21.408 23.0007 21.7686C22.632 22.1293 22.1353 22.329 21.6196 22.3239H8.5168C7.43143 22.3239 6.55268 21.4618 6.55268 20.3978C6.55894 19.8825 6.76917 19.3907 7.13732 19.0301ZM38 36.4456H8.24846C5.68584 36.4456 4.79046 36.4622 4.10172 36.6427C3.18431 36.8788 2.33809 37.3345 1.63596 37.9704C0.93384 38.6063 0.396877 39.4034 0.0713472 40.2931C0.109347 41.2027 0.173471 42.0031 0.270846 42.7156C0.52972 44.5989 1.00235 45.5964 1.72672 46.3089C2.45347 47.019 3.46997 47.4822 5.39371 47.7363C7.37446 47.9952 9.99645 47.9999 13.7584 47.9999H24.2441C28.006 47.9999 30.628 47.9952 32.6088 47.7339C34.5325 47.4822 35.549 47.019 36.2758 46.3089C37.0002 45.5964 37.4728 44.5989 37.7317 42.7156C37.9501 41.1338 37.9929 39.1293 38 36.4456Z" fill="#F9D8A7"/>
</svg>
