<svg width="36" height="48" viewBox="0 0 36 48" fill="none" xmlns="http://www.w3.org/2000/svg">
<path d="M27.3913 4.2L27.3913 18.1907C28.1646 17.6431 28.9436 17.1997 29.7274 16.8638C32.7096 15.5857 36.0013 17.7917 36 21C35.9992 22.7452 34.9784 24.019 33.2726 24.75C30.6208 25.8864 27.2418 32.1232 26.0236 34.8313C25.2777 36.5054 23.6349 37.4988 21.9131 37.4998L21.913 37.5L5.83247 37.5C4.7251 37.5 3.77963 36.6941 3.61031 35.5998C2.93063 31.2088 0.00253349 29.8098 0.0182837 24C0.01894 23.7446 1.86626e-06 22.7574 1.87752e-06 22.5C2.08509e-06 17.7512 2.07394 14.8524 6.68091 15.6937C7.5525 13.9503 10.3827 12.8121 12.5229 14.1516C14.5083 11.8411 17.5757 12.0292 19.1739 13.561L19.1739 4.2C19.1739 1.93594 21.0678 -6.52708e-07 23.2826 -5.55894e-07C25.4654 -4.60482e-07 27.3913 2.00156 27.3913 4.2ZM25.5 41.25L25.5 45.75C25.5 46.9927 24.4927 48 23.25 48L5.25 48C4.00734 48 3 46.9927 3 45.75L3 41.25C3 40.0073 4.00734 39 5.25 39L23.25 39C24.4927 39 25.5 40.0073 25.5 41.25ZM5.625 43.5C5.625 44.5356 6.46444 45.375 7.5 45.375C8.53556 45.375 9.375 44.5356 9.375 43.5C9.375 42.4644 8.53556 41.625 7.5 41.625C6.46444 41.625 5.625 42.4644 5.625 43.5Z" fill="#F9D8A7"/>
</svg>
