<svg width="28" height="45" viewBox="0 0 28 45" fill="none" xmlns="http://www.w3.org/2000/svg">
<path d="M13.9165 31.0818C13.0065 31.0818 12.2827 30.7906 11.745 30.208C11.2487 29.5839 11.0005 28.7517 11.0005 27.7115C11.0005 26.5049 11.1453 25.3814 11.4348 24.3412C11.7243 23.2594 12.1793 22.1775 12.7997 21.0957C13.4615 20.0139 14.3301 18.9112 15.4055 17.7878C16.15 16.914 16.7497 16.165 17.2047 15.5409C17.701 14.8752 18.0319 14.251 18.1974 13.6685C18.4042 13.0444 18.5076 12.4202 18.5076 11.7961C18.5076 10.6311 18.0733 9.71567 17.2047 9.04993C16.3775 8.38419 15.178 8.05132 13.6063 8.05132C12.1173 8.05132 10.7317 8.23856 9.44946 8.61304C8.20862 8.98752 6.98847 9.52843 5.78899 10.2358C4.7136 10.8183 3.74161 11.0472 2.87302 10.9223C2.04579 10.7559 1.38401 10.3814 0.887677 9.79889C0.391341 9.17476 0.101812 8.4466 0.0190898 7.61442C-0.0636327 6.78225 0.122493 5.97087 0.577467 5.18031C1.03244 4.34813 1.79762 3.61997 2.87302 2.99584C4.56883 1.99722 6.45077 1.24826 8.51883 0.748958C10.5869 0.249653 12.5102 0 14.2887 0C17.0186 0 19.4175 0.457698 21.4856 1.37309C23.5537 2.28849 25.1461 3.53675 26.2628 5.11789C27.4209 6.69903 28 8.55062 28 10.6727C28 11.9626 27.8139 13.1692 27.4416 14.2926C27.0694 15.4161 26.4696 16.5395 25.6424 17.663C24.8152 18.7448 23.6777 19.889 22.2301 21.0957C20.9479 22.1775 19.9345 23.1553 19.19 24.0291C18.4455 24.8613 17.9078 25.6727 17.577 26.4632C17.2461 27.2122 17.0186 28.0236 16.8945 28.8974C16.7704 29.5215 16.4602 30.0416 15.9639 30.4577C15.5089 30.8738 14.8264 31.0818 13.9165 31.0818ZM13.7924 45C12.1379 45 10.8144 44.5007 9.82171 43.5021C8.8704 42.5035 8.39475 41.2136 8.39475 39.6325C8.39475 38.0929 8.8704 36.8447 9.82171 35.8877C10.8144 34.889 12.1379 34.3897 13.7924 34.3897C15.4468 34.3897 16.729 34.889 17.639 35.8877C18.5903 36.8447 19.066 38.0929 19.066 39.6325C19.066 41.2136 18.5903 42.5035 17.639 43.5021C16.729 44.5007 15.4468 45 13.7924 45Z" fill="#F9D8A7"/>
</svg>
