<svg width="59" height="55" viewBox="0 0 59 55" fill="none" xmlns="http://www.w3.org/2000/svg">
<path d="M34.8749 7.75H40.6874C41.2013 7.75 41.6941 7.54587 42.0575 7.18252C42.4208 6.81917 42.6249 6.32636 42.6249 5.8125C42.6249 5.29864 42.8291 4.80583 43.1924 4.44248C43.5558 4.07913 44.0486 3.875 44.5624 3.875C45.0763 3.875 45.5691 4.07913 45.9325 4.44248C46.2958 4.80583 46.4999 5.29864 46.4999 5.8125C46.4999 7.35407 45.8876 8.8325 44.7975 9.92256C43.7074 11.0126 42.229 11.625 40.6874 11.625H34.8749C34.3611 11.625 33.8683 11.8291 33.5049 12.1925C33.1416 12.5558 32.9374 13.0486 32.9374 13.5625C32.9374 14.0764 32.7333 14.5692 32.37 14.9325C32.0066 15.2959 31.5138 15.5 30.9999 15.5C30.4861 15.5 29.9933 15.2959 29.6299 14.9325C29.2666 14.5692 29.0624 14.0764 29.0624 13.5625C29.0624 12.0209 29.6748 10.5425 30.7649 9.45244C31.8549 8.36239 33.3334 7.75 34.8749 7.75ZM23.2499 15.5C23.7638 15.5 24.2566 15.2959 24.62 14.9325C24.9833 14.5692 25.1874 14.0764 25.1874 13.5625C25.1874 10.9932 26.2081 8.52916 28.0248 6.7124C29.8416 4.89564 32.3057 3.875 34.8749 3.875H36.8124C37.3263 3.875 37.8191 3.67087 38.1825 3.30752C38.5458 2.94417 38.7499 2.45136 38.7499 1.9375C38.7499 1.42364 38.5458 0.930832 38.1825 0.567481C37.8191 0.204129 37.3263 0 36.8124 0L34.8749 0C31.2791 0.00384648 27.8317 1.43398 25.2891 3.97661C22.7464 6.51924 21.3163 9.96668 21.3124 13.5625C21.3124 14.0764 21.5166 14.5692 21.8799 14.9325C22.2433 15.2959 22.7361 15.5 23.2499 15.5ZM58.1249 52.3125C58.1249 52.8264 57.9208 53.3192 57.5575 53.6825C57.1941 54.0459 56.7013 54.25 56.1874 54.25H1.93744C1.42358 54.25 0.930771 54.0459 0.567419 53.6825C0.204068 53.3192 -6.10352e-05 52.8264 -6.10352e-05 52.3125C-6.10352e-05 51.7986 0.204068 51.3058 0.567419 50.9425C0.930771 50.5791 1.42358 50.375 1.93744 50.375H5.99166C9.32658 43.6349 13.1313 33.7391 13.5285 23.0902C13.5644 22.089 13.9888 21.1411 14.7117 20.4476C15.4347 19.754 16.3993 19.3693 17.4011 19.375H38.7935C39.7917 19.374 40.7518 19.7582 41.4737 20.4476C42.1956 21.137 42.6236 22.0784 42.6685 23.0756C43.1771 34.6619 48.4423 45.4465 51.2153 50.375H56.1874C56.7013 50.375 57.1941 50.5791 57.5575 50.9425C57.9208 51.3058 58.1249 51.7986 58.1249 52.3125ZM38.7935 23.25H34.9185C35.3472 33.8384 39.1302 43.6712 42.4481 50.375H46.8075C43.7584 44.5819 39.2779 34.3034 38.7935 23.25Z" fill="white"/>
</svg>
