<svg width="63" height="54" viewBox="0 0 63 54" xmlns="http://www.w3.org/2000/svg">
<path d="M44.6 12.846C44.6 18.6909 36.7679 29.1068 33.3286 33.3995C32.5036 34.4272 30.9715 34.4272 30.1572 33.3995C26.7179 29.1068 18.8857 18.6909 18.8857 12.846C18.8857 5.74857 24.6393 0 31.7429 0C38.8465 0 44.6 5.74857 44.6 12.846ZM45.4572 21.4528C45.8322 20.7141 46.175 19.9755 46.4857 19.2475C46.5393 19.1191 46.5929 18.9799 46.6465 18.8515L59.075 13.8844C60.7679 13.2099 62.6 14.4517 62.6 16.2716V45.2606C62.6 46.3097 61.9572 47.2518 60.9822 47.6479L45.4572 53.846V21.4528ZM15.6286 14.805C15.8857 16.3144 16.4 17.8345 17 19.2475C17.3107 19.9755 17.6536 20.7141 18.0286 21.4528V48.3651L4.41074 53.8139C2.71789 54.4883 0.885742 53.2466 0.885742 51.4267V22.4376C0.885742 21.3885 1.5286 20.4465 2.5036 20.0504L15.6393 14.805H15.6286ZM36.0072 35.5405C37.4965 33.6779 39.8322 30.6483 42.0286 27.2977V53.9852L21.4572 48.1082V27.2977C23.6536 30.6483 25.9893 33.6779 27.4786 35.5405C29.675 38.281 33.8107 38.281 36.0072 35.5405ZM31.7429 16.2716C32.8795 16.2716 33.9696 15.8204 34.7733 15.0174C35.5771 14.2144 36.0286 13.1252 36.0286 11.9896C36.0286 10.8539 35.5771 9.76478 34.7733 8.96175C33.9696 8.15872 32.8795 7.70758 31.7429 7.70758C30.6062 7.70758 29.5162 8.15872 28.7124 8.96175C27.9087 9.76478 27.4572 10.8539 27.4572 11.9896C27.4572 13.1252 27.9087 14.2144 28.7124 15.0174C29.5162 15.8204 30.6062 16.2716 31.7429 16.2716Z" fill="white"/>
</svg>
