<svg width="27" height="29" viewBox="0 0 27 29" fill="none" xmlns="http://www.w3.org/2000/svg">
<path d="M21.3941 15.8229V13.162C21.3939 12.6645 21.2548 12.1769 20.9926 11.754C20.7304 11.3312 20.3555 10.9899 19.9099 10.7685L14.7085 8.17448V6.16878H16.0456C16.781 6.16878 17.3827 5.56707 17.3827 4.83165C17.3827 4.09623 16.781 3.49452 16.0456 3.49452H14.7085V2.15738C14.7085 1.42196 14.1067 0.820251 13.3713 0.820251C12.6359 0.820251 12.0342 1.42196 12.0342 2.15738V3.49452H10.6971C9.96164 3.49452 9.35993 4.09623 9.35993 4.83165C9.35993 5.56707 9.96164 6.16878 10.6971 6.16878H12.0342V8.17448L6.83275 10.7819C6.3872 11.0033 6.01224 11.3446 5.75004 11.7674C5.48784 12.1902 5.34879 12.6778 5.34853 13.1754V15.8363L1.59119 17.5077C0.628452 17.9222 0 18.8849 0 19.9413V26.2258C0 27.6966 1.20342 28.9 2.67427 28.9H10.6971V25.0357C10.6971 23.6986 11.6063 22.4684 12.9167 22.2545C13.3006 22.1883 13.6943 22.2067 14.0704 22.3085C14.4464 22.4104 14.7956 22.5931 15.0936 22.844C15.3917 23.0949 15.6313 23.4079 15.7957 23.7611C15.9601 24.1142 16.0454 24.4991 16.0456 24.8886V28.9H24.0684C25.5392 28.9 26.7427 27.6966 26.7427 26.2258V19.9413C26.7427 18.8849 26.1142 17.9222 25.1515 17.4943L21.3941 15.8229ZM13.3713 17.5344C12.2615 17.5344 11.3656 16.6385 11.3656 15.5287C11.3656 14.4189 12.2615 13.523 13.3713 13.523C14.4811 13.523 15.377 14.4189 15.377 15.5287C15.377 16.6385 14.4811 17.5344 13.3713 17.5344Z" fill="#51448B"/>
</svg>
