<svg width="31" height="27" viewBox="0 0 31 27" fill="none" xmlns="http://www.w3.org/2000/svg">
<path d="M1.40909 12.1026L4.29773 12.2423C4.46845 10.7128 4.95733 9.23505 5.73347 7.9025C6.50961 6.56995 7.55612 5.41161 8.80682 4.50072L7.22864 2.09719C6.84818 1.42644 7.04545 0.574023 7.75 0.18275C8.45455 -0.194549 9.28591 0.0290357 9.68045 0.699789L10.9909 3.24306C12.4153 2.6356 13.9495 2.32232 15.5 2.32232C17.0505 2.32232 18.5847 2.6356 20.0091 3.24306L21.3195 0.699789C21.7141 0.0290357 22.5455 -0.194549 23.25 0.18275C23.9545 0.574023 24.1518 1.42644 23.7714 2.09719L22.1932 4.50072C23.4439 5.41161 24.4904 6.56995 25.2665 7.9025C26.0427 9.23505 26.5316 10.7128 26.7023 12.2423L29.5909 12.1026C29.9646 12.1026 30.323 12.2498 30.5873 12.5119C30.8515 12.774 31 13.1294 31 13.5C31 13.8706 30.8515 14.226 30.5873 14.4881C30.323 14.7502 29.9646 14.8974 29.5909 14.8974L26.7023 14.7577C26.5316 16.2872 26.0427 17.7649 25.2665 19.0975C24.4904 20.43 23.4439 21.5884 22.1932 22.4993L23.7714 24.9028C24.1518 25.5736 23.9545 26.426 23.25 26.8172C22.5455 27.1945 21.7141 26.971 21.3195 26.3002L20.0091 23.7569C18.5847 24.3644 17.0505 24.6777 15.5 24.6777C13.9495 24.6777 12.4153 24.3644 10.9909 23.7569L9.68045 26.3002C9.28591 26.971 8.45455 27.1945 7.75 26.8172C7.04545 26.426 6.84818 25.5736 7.22864 24.9028L8.80682 22.4993C7.55612 21.5884 6.50961 20.43 5.73347 19.0975C4.95733 17.7649 4.46845 16.2872 4.29773 14.7577L1.40909 14.8974C1.03538 14.8974 0.676969 14.7502 0.412713 14.4881C0.148457 14.226 0 13.8706 0 13.5C0 13.1294 0.148457 12.774 0.412713 12.5119C0.676969 12.2498 1.03538 12.1026 1.40909 12.1026ZM11.3714 12.5917C11.5545 11.7393 12.0195 10.9847 12.6818 10.4117L10.3427 6.86234C8.57565 8.20864 7.41599 10.1923 7.11591 12.3821L11.3714 12.5917ZM15.5 9.30779C15.9509 9.30779 16.3736 9.37766 16.7682 9.50343L18.7127 5.74441C17.7264 5.33917 16.6414 5.11558 15.5 5.11558C14.3586 5.11558 13.2736 5.33917 12.2873 5.74441L14.2318 9.50343C14.6264 9.37766 15.0491 9.30779 15.5 9.30779ZM19.6286 12.5917L23.8841 12.3821C23.584 10.1923 22.4243 8.20864 20.6573 6.86234L18.3182 10.4117C18.9805 10.9847 19.4455 11.7393 19.6286 12.5917ZM19.6286 14.4083C19.4455 15.2607 18.9805 16.0153 18.3182 16.5883L20.6573 20.1377C22.4243 18.7914 23.584 16.8077 23.8841 14.6179L19.6286 14.4083ZM15.5 17.6922C15.0491 17.6922 14.6264 17.6223 14.2177 17.4966L12.2873 21.2556C13.2736 21.6608 14.3586 21.8844 15.5 21.8844C16.6414 21.8844 17.7264 21.6608 18.7127 21.2556L16.7823 17.4966C16.3736 17.6223 15.9509 17.6922 15.5 17.6922ZM11.3714 14.4083L7.11591 14.6179C7.42591 16.8538 8.60955 18.8241 10.3427 20.1377L12.6818 16.5883C12.0195 16.0153 11.5545 15.2607 11.3714 14.4083Z" fill="#51448B"/>
</svg>
